<?xml version="1.0" encoding="utf-8"?>
<!-- Svg Vector Icons : http://www.onlinewebfonts.com/icon -->
<!DOCTYPE svg PUBLIC "-//W3C//DTD SVG 1.1//EN" "http://www.w3.org/Graphics/SVG/1.1/DTD/svg11.dtd">
<svg version="1.1" xmlns="http://www.w3.org/2000/svg" xmlns:xlink="http://www.w3.org/1999/xlink" x="0px" y="0px" viewBox="0 0 256 256" enable-background="new 0 0 256 256" xml:space="preserve">
<metadata> Svg Vector Icons : http://www.onlinewebfonts.com/icon </metadata>
<g><g><path fill="#f4f4f4"  d="M128,10C62.8,10,10,62.8,10,128c0,65.2,52.8,118,118,118c65.2,0,118-52.8,118-118C246,62.8,193.2,10,128,10z M128,238.6c-61.1,0-110.6-49.5-110.6-110.6C17.4,66.9,66.9,17.4,128,17.4c61.1,0,110.6,49.5,110.6,110.6C238.6,189.1,189.1,238.6,128,238.6z"/><path fill="#fb0202"  d="M153.8,129.9c9-7.4,14.7-18.7,14.7-31.3c0-22.4-18.2-40.6-40.6-40.6c-22.4,0-40.6,18.2-40.6,40.6c0,12.6,5.7,23.8,14.7,31.3c-21.7,9.8-36.9,31.7-36.9,57.1c0,2,1.7,3.7,3.7,3.7s3.7-1.6,3.7-3.7c0-24.2,15.5-44.6,37.1-52.2c5.5,2.8,11.7,4.4,18.3,4.4s12.8-1.6,18.3-4.4c21.6,7.6,37.1,28,37.1,52.2c0,2,1.6,3.7,3.7,3.7s3.7-1.6,3.7-3.7C190.7,161.5,175.6,139.7,153.8,129.9z M94.8,98.6c0-18.3,14.9-33.2,33.2-33.2s33.2,14.9,33.2,33.2c0,17.8-14,32.3-31.6,33.1c-0.5,0-1.1-0.1-1.6-0.1s-1.1,0-1.6,0.1C108.8,130.8,94.8,116.4,94.8,98.6z"/></g></g>
</svg>